<?xml version="1.0" encoding="utf-8"?>
<!-- Generator: Adobe Illustrator 16.0.0, SVG Export Plug-In . SVG Version: 6.00 Build 0)  -->
<!DOCTYPE svg PUBLIC "-//W3C//DTD SVG 1.1//EN" "http://www.w3.org/Graphics/SVG/1.1/DTD/svg11.dtd">
<svg version="1.1" id="图层_1" xmlns="http://www.w3.org/2000/svg" xmlns:xlink="http://www.w3.org/1999/xlink" x="0px" y="0px"
	 width="807.87px" height="595.28px" viewBox="0 0 807.87 595.28" enable-background="new 0 0 807.87 595.28" xml:space="preserve">
<g>
	<path fill="#E19913" d="M263.907,329.115c0,0,6.767,16.791,28.763,13.667c9.422-1.338,22.843-11.063,21.541-29.154
		c-0.311-4.316,0.847-11.063,7.354-11.976c6.509-0.91,9.632,4.165,10.152,7.42c0.521,3.254,1.952,32.018-22.647,40.347
		C284.471,357.749,265.338,342.521,263.907,329.115z"/>
	<path fill="#0E68D6" d="M326.901,248.225c0,0-1.888-11.453-12.755-16.072c-10.868-4.621-30.522-2.994-51.671,13.601
		c0,0-21.28-3.644-30.976,9.762c-5.856,10.606-0.716,8.004,2.863,6.572c3.579-1.432,5.857-1.497,7.679,0.196
		c1.822,1.691,1.237,5.107,0.357,5.986c-0.878,0.879-17.602,24.669-4.685,55.542c12.006,28.699,48.412,44.504,80.728,27.529
		c15.422-8.103,19.522-23.039,20.401-27.921c0.878-4.879-1.464-10.444-7.321-11.028c-5.857-0.586-8.883,2.831-9.957,7.321
		c-1.074,4.489-3.632,22.667-25.478,26.551c-8.785,1.562-25.585-1.93-32.603-19.133c-3.025-7.418-3.025-23.721-0.391-30.846
		c0,0-8.687,12.983-3.319,31.53c5.37,18.545,22.939,27.918,35.044,28.502c0,0-19.816,2.539-34.459-15.813
		c-14.642-18.352-7.837-46.782,9.958-58.08c6.149-3.904,10.347-5.271,10.64-3.417c0.293,1.855,0.099,3.22-1.66,5.955
		c-1.757,2.732-0.994,5.308,3.71,4.001c3.514-0.976,7.517-4.489,9.761-8.59c2.245-4.1,3.221-11.029,14.349-14.544
		c11.128-3.514,13.568-4.295,18.156-4.978c0,0-6.196-0.331-12.006-6.54c-0.944-1.011,0.163-2.572,1.204-1.466
		c1.042,1.107,4.685,5.922,13.211,6.379c8.524,0.454,11.583-1.953,11.713-4.751c0.131-2.799-2.473-4.686-5.01-5.206
		C331.846,248.745,326.901,248.225,326.901,248.225z"/>
	<circle fill="#F5F4F4" cx="307.004" cy="243.979" r="5.19"/>
	<circle fill="#0E68D6" cx="308.573" cy="243.924" r="3.636"/>
</g>
</svg>
